<?xml version="1.0" encoding="UTF-8" standalone="no"?>
<!-- Created with Inkscape (http://www.inkscape.org/) -->

<svg
   width="210mm"
   height="297mm"
   viewBox="0 0 210 297"
   version="1.1"
   id="svg5"
   xml:space="preserve"
   inkscape:version="1.2.2 (b0a8486541, 2022-12-01)"
   sodipodi:docname="drawing.svg"
   xmlns:inkscape="http://www.inkscape.org/namespaces/inkscape"
   xmlns:sodipodi="http://sodipodi.sourceforge.net/DTD/sodipodi-0.dtd"
   xmlns="http://www.w3.org/2000/svg"
   xmlns:svg="http://www.w3.org/2000/svg"><sodipodi:namedview
     id="namedview7"
     pagecolor="#ffffff"
     bordercolor="#666666"
     borderopacity="1.0"
     inkscape:showpageshadow="2"
     inkscape:pageopacity="0.0"
     inkscape:pagecheckerboard="0"
     inkscape:deskcolor="#d1d1d1"
     inkscape:document-units="mm"
     showgrid="false"
     inkscape:zoom="0.2102413"
     inkscape:cx="397.16269"
     inkscape:cy="180.7447"
     inkscape:window-width="1916"
     inkscape:window-height="1173"
     inkscape:window-x="0"
     inkscape:window-y="23"
     inkscape:window-maximized="1"
     inkscape:current-layer="layer1" /><defs
     id="defs2"><marker
       id="DistanceX"
       orient="auto"
       refX="0.0"
       refY="0.0"
       style="overflow:visible"><path
         d="M 3,-3 L -3,3 M 0,-5 L  0,5"
         style="stroke:#000000; stroke-width:0.5"
         id="path1815" /></marker><pattern
       id="Hatch"
       patternUnits="userSpaceOnUse"
       width="8"
       height="8"
       x="0"
       y="0"><path
         d="M8 4 l-4,4"
         stroke="#000000"
         stroke-width="0.25"
         linecap="square"
         id="path1818" /><path
         d="M6 2 l-4,4"
         stroke="#000000"
         stroke-width="0.25"
         linecap="square"
         id="path1820" /><path
         d="M4 0 l-4,4"
         stroke="#000000"
         stroke-width="0.25"
         linecap="square"
         id="path1822" /></pattern><symbol
       id="*Model_Space" /><symbol
       id="*Paper_Space" /><symbol
       id="*Paper_Space0" /></defs><g
     inkscape:label="Layer 1"
     inkscape:groupmode="layer"
     id="layer1"><g
       id="g1867"
       transform="matrix(0.26458333,0,0,0.26458333,-16787.316,1960.5149)"><g
         inkscape:label="0"
         id="g1830" /><g
         inkscape:label="Livello 02"
         id="g1844"><path
           d="m 63484.044,-6144.599 a 132.28346,132.28346 0 0 0 198.229,107.3711"
           style="fill:none;stroke:#6600cc"
           id="path1832" /><path
           d="m 63484.044,-7548.7329 a 12917.252,12917.252 0 0 0 0,1404.1339"
           style="fill:none;stroke:#6600cc"
           id="path1834" /><path
           d="m 63675.932,-7659.5379 a 132.28346,132.28346 0 0 0 -191.888,110.805"
           style="fill:none;stroke:#6600cc"
           id="path1836" /><path
           d="m 64897.97,-6953.3046 a 12851.196,12851.196 0 0 0 -1222.038,-706.2333"
           style="fill:none;stroke:#6600cc"
           id="path1838" /><path
           d="m 64891.98,-6735.8795 a 132.28346,132.28346 0 0 0 -6.144,-225.3473"
           style="fill:none;stroke:#6600cc"
           id="path1840" /><path
           d="m 63669.345,-6030.6805 a 12851.196,12851.196 0 0 0 1222.635,-705.199"
           style="fill:none;stroke:#6600cc"
           id="path1842" /></g></g></g></svg>
