<?xml version="1.0" encoding="UTF-8" standalone="no"?>
<svg
   version="1.1"
   width="24.325001mm"
   height="14.165mm"
   viewBox="-1 -1 24.325 14.165"
   id="svg14787"
   sodipodi:docname="outline.svg"
   inkscape:version="1.2.2 (b0a8486541, 2022-12-01)"
   xmlns:inkscape="http://www.inkscape.org/namespaces/inkscape"
   xmlns:sodipodi="http://sodipodi.sourceforge.net/DTD/sodipodi-0.dtd"
   xmlns="http://www.w3.org/2000/svg"
   xmlns:svg="http://www.w3.org/2000/svg"
   xmlns:rdf="http://www.w3.org/1999/02/22-rdf-syntax-ns#"
   xmlns:cc="http://creativecommons.org/ns#"
   xmlns:dc="http://purl.org/dc/elements/1.1/">
  <defs
     id="defs14791" />
  <sodipodi:namedview
     id="namedview14789"
     pagecolor="#ffffff"
     bordercolor="#666666"
     borderopacity="1.0"
     inkscape:showpageshadow="2"
     inkscape:pageopacity="0.0"
     inkscape:pagecheckerboard="0"
     inkscape:deskcolor="#d1d1d1"
     inkscape:document-units="mm"
     showgrid="false"
     inkscape:zoom="8.0469178"
     inkscape:cx="14.539728"
     inkscape:cy="21.498915"
     inkscape:window-width="1916"
     inkscape:window-height="1131"
     inkscape:window-x="1920"
     inkscape:window-y="67"
     inkscape:window-maximized="1"
     inkscape:current-layer="svg14787" />
  <title
     id="title14729">SVG Image created as beaucoup_rgb-User_3.svg date 2023/07/25 14:52:46 </title>
  <desc
     id="desc14731">Image generated by PCBNEW </desc>
  <g
     style="fill:#000000;fill-opacity:1;stroke:#000000;stroke-linecap:round;stroke-linejoin:round;stroke-opacity:1"
     id="g14733"
     transform="translate(-2.135,-2.025)" />
  <g
     style="fill:#000000;fill-opacity:0;stroke:#000000;stroke-width:0;stroke-linecap:round;stroke-linejoin:round;stroke-opacity:1"
     id="g14761"
     transform="translate(-2.135,-2.025)">
    <g
       id="g14735" />
    <g
       id="g14737" />
    <g
       id="g14739" />
    <g
       id="g14741" />
    <g
       id="g14743" />
    <g
       id="g14745" />
    <g
       id="g14747" />
    <g
       id="g14749" />
    <g
       id="g14751" />
    <g
       style="fill:#000000;fill-opacity:0;stroke:#000000;stroke-width:0;stroke-linecap:round;stroke-linejoin:round;stroke-opacity:1"
       id="g14759">
      <g
         id="g14753" />
      <g
         style="fill:#000000;fill-opacity:1;stroke:#000000;stroke-width:0;stroke-linecap:round;stroke-linejoin:round;stroke-opacity:1"
         id="g14757">
        <path
           style="fill:#000000;fill-opacity:1;fill-rule:evenodd;stroke:#000000;stroke-width:0;stroke-linecap:round;stroke-linejoin:round;stroke-opacity:1"
           d="m 23.413,2.0753 0.1799,0.0177 0.0239,0.0048 0.1642,0.0498 0.0225,0.0093 0.1513,0.0809 0.0202,0.0135 0.1327,0.1088 0.0172,0.0172 0.1088,0.1327 0.0135,0.0202 0.0809,0.1513 0.0093,0.0225 0.0498,0.1642 0.0048,0.0239 0.0177,0.1799 3e-4,0.006 v 10.059 l -3e-4,0.006 -0.0177,0.1799 -0.0048,0.0239 -0.0498,0.1642 -0.0093,0.0225 -0.0809,0.1513 -0.0135,0.0202 -0.1088,0.1327 -0.0172,0.0172 -0.1327,0.1088 -0.0202,0.0135 -0.1513,0.0809 -0.0225,0.0093 -0.1642,0.0498 -0.0239,0.0048 -0.1799,0.0177 -0.006,3e-4 H 3.188 L 3.182,14.1397 3.0021,14.122 2.9782,14.1172 2.814,14.0674 2.7915,14.0581 2.6402,13.9772 2.62,13.9637 2.4873,13.8549 2.4701,13.8377 2.3613,13.705 2.3478,13.6848 2.2669,13.5335 2.2576,13.511 2.2078,13.3468 2.203,13.3229 2.1853,13.143 2.185,13.137 V 3.078 L 2.1853,3.072 2.203,2.8921 2.2078,2.8682 2.2576,2.704 2.2669,2.6815 2.3478,2.5302 2.3613,2.51 2.4701,2.3773 2.4873,2.3601 2.62,2.2513 2.6402,2.2378 2.7915,2.1569 2.814,2.1476 2.9782,2.0978 3.0021,2.093 3.182,2.0753 3.188,2.075 h 20.219 z"
           id="path14755" />
      </g>
    </g>
  </g>
  <g
     style="fill:#000000;fill-opacity:1;stroke:#000000;stroke-width:0;stroke-linecap:round;stroke-linejoin:round;stroke-opacity:1"
     id="g14763"
     transform="translate(-2.135,-2.025)" />
  <metadata
     id="metadata14914">
    <rdf:RDF>
      <cc:Work
         rdf:about="">
        <dc:title>SVG Image created as beaucoup_rgb-User_3.svg date 2023/07/25 14:52:46 </dc:title>
      </cc:Work>
    </rdf:RDF>
  </metadata>
</svg>
