<?xml version="1.0" encoding="UTF-8" standalone="no"?>
<svg
   version="1.1"
   width="24.325001mm"
   height="14.165mm"
   viewBox="-1 -1 24.325 14.165"
   id="svg14328"
   sodipodi:docname="traces.svg"
   inkscape:version="1.2.2 (b0a8486541, 2022-12-01)"
   xmlns:inkscape="http://www.inkscape.org/namespaces/inkscape"
   xmlns:sodipodi="http://sodipodi.sourceforge.net/DTD/sodipodi-0.dtd"
   xmlns="http://www.w3.org/2000/svg"
   xmlns:svg="http://www.w3.org/2000/svg"
   xmlns:rdf="http://www.w3.org/1999/02/22-rdf-syntax-ns#"
   xmlns:cc="http://creativecommons.org/ns#"
   xmlns:dc="http://purl.org/dc/elements/1.1/">
  <defs
     id="defs14332" />
  <sodipodi:namedview
     id="namedview14330"
     pagecolor="#ffffff"
     bordercolor="#666666"
     borderopacity="1.0"
     inkscape:showpageshadow="2"
     inkscape:pageopacity="0.0"
     inkscape:pagecheckerboard="0"
     inkscape:deskcolor="#d1d1d1"
     inkscape:document-units="mm"
     showgrid="false"
     inkscape:zoom="8.0469178"
     inkscape:cx="2.8582372"
     inkscape:cy="21.374644"
     inkscape:window-width="1916"
     inkscape:window-height="1131"
     inkscape:window-x="1920"
     inkscape:window-y="67"
     inkscape:window-maximized="1"
     inkscape:current-layer="svg14328" />
  <title
     id="title14136">SVG Image created as beaucoup_rgb-F_Cu.svg date 2023/07/25 14:52:46 </title>
  <desc
     id="desc14138">Image generated by PCBNEW </desc>
  <g
     style="fill:#000000;fill-opacity:1;stroke:#000000;stroke-linecap:round;stroke-linejoin:round;stroke-opacity:1"
     id="g14140"
     transform="translate(-2.135,-2.025)" />
  <g
     style="fill:#000000;fill-opacity:0;stroke:#000000;stroke-width:0;stroke-linecap:round;stroke-linejoin:round;stroke-opacity:1"
     id="g14270"
     transform="translate(-2.135,-2.025)">
    <g
       id="g14142" />
    <g
       style="fill:#000000;fill-opacity:0;stroke:#000000;stroke-width:0;stroke-linecap:round;stroke-linejoin:round;stroke-opacity:1"
       id="g14144" />
    <g
       style="fill:#000000;fill-opacity:1;stroke:#000000;stroke-width:0;stroke-linecap:round;stroke-linejoin:round;stroke-opacity:1"
       id="g14148">
      <path
         style="fill:#000000;fill-opacity:1;fill-rule:evenodd;stroke:#000000;stroke-width:0;stroke-linecap:round;stroke-linejoin:round;stroke-opacity:1"
         d="m 12.13,10.875 0.019,-0.0957 0.0542,-0.0811 0.0811,-0.0542 0.0957,-0.019 h 1.2 l 0.0957,0.019 0.0811,0.0542 0.0542,0.0811 0.019,0.0957 v 1.45 l -0.019,0.0957 -0.0542,0.0811 -0.0811,0.0542 -0.0957,0.019 h -1.2 L 12.2843,12.556 12.2032,12.5018 12.149,12.4207 12.13,12.325 Z"
         id="path14146" />
    </g>
    <g
       style="fill:#000000;fill-opacity:1;stroke:#000000;stroke-width:1.7;stroke-linecap:round;stroke-linejoin:round;stroke-opacity:1"
       id="g14150" />
    <g
       style="fill:#000000;fill-opacity:0;stroke:#000000;stroke-width:1.7;stroke-linecap:round;stroke-linejoin:round;stroke-opacity:1"
       id="g14158">
      <path
         d="m 15.48,11.475 v 0.25"
         id="path14152" />
      <path
         d="m 17.98,11.475 v 0.25"
         id="path14154" />
      <path
         d="m 20.48,11.475 v 0.25"
         id="path14156" />
    </g>
    <g
       id="g14160" />
    <g
       style="fill:#000000;fill-opacity:0;stroke:#000000;stroke-width:1.7;stroke-linecap:round;stroke-linejoin:round;stroke-opacity:1"
       id="g14162" />
    <g
       style="fill:#000000;fill-opacity:0;stroke:#000000;stroke-width:0;stroke-linecap:round;stroke-linejoin:round;stroke-opacity:1"
       id="g14164" />
    <g
       style="fill:#000000;fill-opacity:1;stroke:#000000;stroke-width:0;stroke-linecap:round;stroke-linejoin:round;stroke-opacity:1"
       id="g14170">
      <path
         style="fill:#000000;fill-opacity:1;fill-rule:evenodd;stroke:#000000;stroke-width:0;stroke-linecap:round;stroke-linejoin:round;stroke-opacity:1"
         d="M 16.165,8.72 16.0693,8.701 15.9882,8.6468 15.934,8.5657 15.915,8.47 V 7.67 L 15.934,7.5743 15.9882,7.4932 16.0693,7.439 16.165,7.42 h 1.25 l 0.0957,0.019 0.0811,0.0542 0.0542,0.0811 0.019,0.0957 v 0.8 L 17.646,8.5657 17.5918,8.6468 17.5107,8.701 17.415,8.72 Z"
         id="path14166" />
      <path
         style="fill:#000000;fill-opacity:1;fill-rule:evenodd;stroke:#000000;stroke-width:0;stroke-linecap:round;stroke-linejoin:round;stroke-opacity:1"
         d="M 16.165,5.62 16.0693,5.601 15.9882,5.5468 15.934,5.4657 15.915,5.37 V 4.57 L 15.934,4.4743 15.9882,4.3932 16.0693,4.339 16.165,4.32 h 1.25 l 0.0957,0.019 0.0811,0.0542 0.0542,0.0811 0.019,0.0957 v 0.8 L 17.646,5.4657 17.5918,5.5468 17.5107,5.601 17.415,5.62 Z"
         id="path14168" />
    </g>
    <g
       id="g14172" />
    <g
       style="fill:#000000;fill-opacity:1;stroke:#000000;stroke-width:0;stroke-linecap:round;stroke-linejoin:round;stroke-opacity:1"
       id="g14182">
      <path
         style="fill:#000000;fill-opacity:1;fill-rule:evenodd;stroke:#000000;stroke-width:0;stroke-linecap:round;stroke-linejoin:round;stroke-opacity:1"
         d="m 19.35,7.52 h 1 v 1.5 h -1 z"
         id="path14174" />
      <path
         style="fill:#000000;fill-opacity:1;fill-rule:evenodd;stroke:#000000;stroke-width:0;stroke-linecap:round;stroke-linejoin:round;stroke-opacity:1"
         d="m 20.85,7.52 h 1 v 1.5 h -1 z"
         id="path14176" />
      <path
         style="fill:#000000;fill-opacity:1;fill-rule:evenodd;stroke:#000000;stroke-width:0;stroke-linecap:round;stroke-linejoin:round;stroke-opacity:1"
         d="m 20.85,4.02 h 1 v 1.5 h -1 z"
         id="path14178" />
      <path
         style="fill:#000000;fill-opacity:1;fill-rule:evenodd;stroke:#000000;stroke-width:0;stroke-linecap:round;stroke-linejoin:round;stroke-opacity:1"
         d="m 19.35,4.02 h 1 v 1.5 h -1 z"
         id="path14180" />
    </g>
    <g
       id="g14184" />
    <g
       style="fill:#000000;fill-opacity:1;stroke:#000000;stroke-width:0;stroke-linecap:round;stroke-linejoin:round;stroke-opacity:1"
       id="g14190">
      <path
         style="fill:#000000;fill-opacity:1;fill-rule:evenodd;stroke:#000000;stroke-width:0;stroke-linecap:round;stroke-linejoin:round;stroke-opacity:1"
         d="M 11.085,8.72 10.9893,8.701 10.9082,8.6468 10.854,8.5657 10.835,8.47 V 7.67 L 10.854,7.5743 10.9082,7.4932 10.9893,7.439 11.085,7.42 h 1.25 l 0.0957,0.019 0.0811,0.0542 0.0542,0.0811 0.019,0.0957 v 0.8 L 12.566,8.5657 12.5118,8.6468 12.4307,8.701 12.335,8.72 Z"
         id="path14186" />
      <path
         style="fill:#000000;fill-opacity:1;fill-rule:evenodd;stroke:#000000;stroke-width:0;stroke-linecap:round;stroke-linejoin:round;stroke-opacity:1"
         d="M 11.085,5.62 10.9893,5.601 10.9082,5.5468 10.854,5.4657 10.835,5.37 V 4.57 L 10.854,4.4743 10.9082,4.3932 10.9893,4.339 11.085,4.32 h 1.25 l 0.0957,0.019 0.0811,0.0542 0.0542,0.0811 0.019,0.0957 v 0.8 L 12.566,5.4657 12.5118,5.5468 12.4307,5.601 12.335,5.62 Z"
         id="path14188" />
    </g>
    <g
       id="g14192" />
    <g
       style="fill:#000000;fill-opacity:1;stroke:#000000;stroke-width:0;stroke-linecap:round;stroke-linejoin:round;stroke-opacity:1"
       id="g14196">
      <circle
         cx="6.6300001"
         cy="6.52"
         r="1.8"
         id="circle14194" />
    </g>
    <g
       style="fill:#000000;fill-opacity:1;stroke:#000000;stroke-width:0.0212;stroke-linecap:round;stroke-linejoin:round;stroke-opacity:1"
       id="g14198" />
    <g
       style="fill:#000000;fill-opacity:1;stroke:#000000;stroke-width:0;stroke-linecap:round;stroke-linejoin:round;stroke-opacity:1"
       id="g14202">
      <circle
         cx="6.6300001"
         cy="6.52"
         r="2.8499999"
         id="circle14200" />
    </g>
    <g
       style="fill:#000000;fill-opacity:1;stroke:#000000;stroke-width:0.0212;stroke-linecap:round;stroke-linejoin:round;stroke-opacity:1"
       id="g14204" />
    <g
       id="g14206" />
    <g
       style="fill:#000000;fill-opacity:1;stroke:#000000;stroke-width:0.0212;stroke-linecap:round;stroke-linejoin:round;stroke-opacity:1"
       id="g14208" />
    <g
       style="fill:#000000;fill-opacity:1;stroke:#000000;stroke-width:0;stroke-linecap:round;stroke-linejoin:round;stroke-opacity:1"
       id="g14214">
      <path
         style="fill:#000000;fill-opacity:1;fill-rule:evenodd;stroke:#000000;stroke-width:0;stroke-linecap:round;stroke-linejoin:round;stroke-opacity:1"
         d="m 14.875,4.32 0.0957,0.019 0.0811,0.0542 0.0542,0.0811 0.019,0.0957 v 0.8 L 15.106,5.4657 15.0518,5.5468 14.9707,5.601 14.875,5.62 h -1.25 L 13.5293,5.601 13.4482,5.5468 13.394,5.4657 13.375,5.37 V 4.57 L 13.394,4.4743 13.4482,4.3932 13.5293,4.339 13.625,4.32 Z"
         id="path14210" />
      <path
         style="fill:#000000;fill-opacity:1;fill-rule:evenodd;stroke:#000000;stroke-width:0;stroke-linecap:round;stroke-linejoin:round;stroke-opacity:1"
         d="m 14.875,7.42 0.0957,0.019 0.0811,0.0542 0.0542,0.0811 0.019,0.0957 v 0.8 L 15.106,8.5657 15.0518,8.6468 14.9707,8.701 14.875,8.72 h -1.25 L 13.5293,8.701 13.4482,8.6468 13.394,8.5657 13.375,8.47 V 7.67 L 13.394,7.5743 13.4482,7.4932 13.5293,7.439 13.625,7.42 Z"
         id="path14212" />
    </g>
    <g
       id="g14216" />
    <g
       id="g14218" />
    <g
       style="fill:#000000;fill-opacity:1;stroke:#000000;stroke-width:0;stroke-linecap:round;stroke-linejoin:round;stroke-opacity:1"
       id="g14220" />
    <g
       style="fill:#000000;fill-opacity:1;stroke:#000000;stroke-width:0.4;stroke-linecap:round;stroke-linejoin:round;stroke-opacity:1"
       id="g14222" />
    <g
       style="fill:#000000;fill-opacity:0;stroke:#000000;stroke-width:0.4;stroke-linecap:round;stroke-linejoin:round;stroke-opacity:1"
       id="g14266">
      <path
         d="m 11.71,5.25 1.27,1.27"
         id="path14224" />
      <path
         d="m 19.81,8.27 h 0.04"
         id="path14226" />
      <path
         d="m 18.06,6.52 1.75,1.75"
         id="path14228" />
      <path
         d="M 11.71,4.97 V 5.25"
         id="path14230" />
      <path
         d="m 12.98,6.52 h 5.08"
         id="path14232" />
      <path
         d="M 21.35,10.85 V 8.27"
         id="path14234" />
      <path
         d="m 20.6,11.6 0.75,-0.75"
         id="path14236" />
      <path
         d="M 21.35,3.62 V 4.77"
         id="path14238" />
      <path
         d="M 15.85,3.37 H 21.1"
         id="path14240" />
      <path
         d="m 14.25,4.97 1.6,-1.6"
         id="path14242" />
      <path
         d="m 21.1,3.37 0.25,0.25"
         id="path14244" />
      <path
         d="m 16.79,4.97 h 2.86"
         id="path14246" />
      <path
         d="m 19.65,4.97 0.2,-0.2"
         id="path14248" />
      <path
         d="M 12.98,11.6 11.71,10.33"
         id="path14250" />
      <path
         d="M 11.71,10.33 V 8.07"
         id="path14252" />
      <path
         d="M 14.25,8.07 V 8.664"
         id="path14254" />
      <path
         d="M 15.52,9.967 V 11.6"
         id="path14256" />
      <path
         d="m 14.25,8.664 1.27,1.303"
         id="path14258" />
      <path
         d="M 16.79,8.07 V 9.06"
         id="path14260" />
      <path
         d="m 16.79,9.06 1.27,1.27"
         id="path14262" />
      <path
         d="M 18.06,10.33 V 11.6"
         id="path14264" />
    </g>
    <g
       id="g14268" />
  </g>
  <g
     style="fill:#ffffff;fill-opacity:0;stroke:#ffffff;stroke-width:0.4;stroke-linecap:round;stroke-linejoin:round;stroke-opacity:1"
     id="g14272"
     transform="translate(-2.135,-2.025)" />
  <g
     style="fill:#ffffff;fill-opacity:1;stroke:#ffffff;stroke-width:0.0212;stroke-linecap:round;stroke-linejoin:round;stroke-opacity:1"
     id="g14278"
     transform="translate(-2.135,-2.025)" />
  <g
     style="fill:#ffffff;fill-opacity:1;stroke:#ffffff;stroke-width:0.0212;stroke-linecap:round;stroke-linejoin:round;stroke-opacity:1"
     id="g14284"
     transform="translate(-2.135,-2.025)" />
  <g
     style="fill:#ffffff;fill-opacity:1;stroke:#ffffff;stroke-width:0.0212;stroke-linecap:round;stroke-linejoin:round;stroke-opacity:1"
     id="g14290"
     transform="translate(-2.135,-2.025)" />
  <g
     style="fill:#ffffff;fill-opacity:1;stroke:#ffffff;stroke-width:0.0212;stroke-linecap:round;stroke-linejoin:round;stroke-opacity:1"
     id="g14296"
     transform="translate(-2.135,-2.025)" />
  <g
     style="fill:#ffffff;fill-opacity:1;stroke:#ffffff;stroke-width:0.0212;stroke-linecap:round;stroke-linejoin:round;stroke-opacity:1"
     id="g14302"
     transform="translate(-2.135,-2.025)" />
  <g
     style="fill:#000000;fill-opacity:1;stroke:#000000;stroke-width:0.0212;stroke-linecap:round;stroke-linejoin:round;stroke-opacity:1"
     id="g14304"
     transform="translate(-2.135,-2.025)" />
  <metadata
     id="metadata14912">
    <rdf:RDF>
      <cc:Work
         rdf:about="">
        <dc:title>SVG Image created as beaucoup_rgb-F_Cu.svg date 2023/07/25 14:52:46 </dc:title>
      </cc:Work>
    </rdf:RDF>
  </metadata>
</svg>
